<svg xmlns="http://www.w3.org/2000/svg" width="990.83" height="1000"><defs><linearGradient id="b" x1="8.39" x2="11.13" y1="1.11" y2="18.35" gradientUnits="userSpaceOnUse"><stop offset=".01" stop-color="#00b7f0"/><stop offset=".34" stop-color="#009de5"/><stop offset=".76" stop-color="#0082d9"/><stop offset="1" stop-color="#0078d4"/></linearGradient><linearGradient id="c" x1="14.38" x2="29.55" y1="26.65" y2="17.89" gradientUnits="userSpaceOnUse"><stop offset="0" stop-color="#0078d4"/><stop offset=".37" stop-color="#007ad5"/><stop offset=".57" stop-color="#0082d9"/><stop offset=".73" stop-color="#0090df"/><stop offset=".88" stop-color="#00a3e7"/><stop offset="1" stop-color="#00bcf2"/></linearGradient><linearGradient id="d" x1="10.45" x2="24.29" y1="6.69" y2="30.66" gradientTransform="translate(-33.33 -33.33) scale(33.33333)" gradientUnits="userSpaceOnUse"><stop offset="0" stop-color="#00b7f0"/><stop offset="1" stop-color="#007cc1"/></linearGradient><filter id="a" style="color-interpolation-filters:sRGB"><feColorMatrix values="-5.19 1.11 0.072 10 0 -5.19 1.11 0.072 10 0 -5.19 1.11 0.072 10 0 0 0 0 1 0"/></filter></defs><g style="filter:url(#a)"><g style="display:inline"><g style="display:inline"><path d="M9.34 1.02a8.91 8.91 0 0 0-6.48 3.4 8.23 8.23 0 0 0-1.83 4.94 8.92 8.92 0 0 0 3.5 7.36 8.03 8.03 0 0 0 5.98 1.52 1.67 1.67 0 0 0 1.36-1.1 4.67 4.67 0 0 1-1.49-2.18 6.09 6.09 0 0 1-.72-3.01 4.8 4.8 0 0 1 .75-2.72c.56-.67 1.44-.94 2.26-1.12 1.46-.34 3-.44 4.35-1.14.48-.3.52-1.01.24-1.47a8.03 8.03 0 0 0-4.72-4 9.21 9.21 0 0 0-3.2-.48Z" style="fill:url(#b)" transform="translate(-33.33 -33.33) scale(33.33333)"/><path d="M10.79 1.27c-.3.03-.58.18-.87.27a15 15 0 0 0-8.15 7.5c-.39.84-.69 1.8-.49 2.73a8.2 8.2 0 0 0 1.74 3.53 8.6 8.6 0 0 0 6.86 3.15c.65-.02 1.36-.2 1.78-.73.12-.16.22-.34.28-.53-.78-.48-1.2-1.34-1.53-2.15-.39-.93-.81-1.88-.77-2.9.02-.66.11-1.3.3-1.93.22-.7.7-1.35 1.4-1.66.98-.5 2.1-.58 3.18-.8a7.4 7.4 0 0 0 2.6-.84c.4-.36.37-1 .1-1.42a7.58 7.58 0 0 0-6.43-4.22z" style="opacity:.05;fill-rule:evenodd" transform="translate(-33.33 -33.33) scale(33.33333)"/><path d="M12.23 1.78a13.76 13.76 0 0 0-5.76 2.9 14.1 14.1 0 0 0-4.65 6.71c-.1.33-.2.67-.16 1.02.05.97.54 1.86 1.15 2.6a8.62 8.62 0 0 0 7.38 3.41c.68-.05 1.38-.39 1.66-1.04 0-.08.14-.2.01-.24a4.6 4.6 0 0 1-1.48-2.24 6.61 6.61 0 0 1-.66-3.72c.1-.8.34-1.66.98-2.22.76-.64 1.77-.81 2.72-1 1.24-.26 2.56-.38 3.67-1.05.42-.34.4-.98.15-1.42a7.33 7.33 0 0 0-3.34-3.36 3.25 3.25 0 0 0-1.67-.35z" style="opacity:.1;fill-rule:evenodd" transform="translate(-33.33 -33.33) scale(33.33333)"/><path d="M13.06 2.11c-3.9.67-7.37 3.18-9.43 6.52a11.23 11.23 0 0 0-1.65 4.42c.02.95.58 1.78 1.21 2.45a8.63 8.63 0 0 0 7.04 2.9c.7-.06 1.41-.46 1.66-1.15.1-.1-.1-.13-.15-.2a4.5 4.5 0 0 1-1.33-2.08 6.3 6.3 0 0 1-.77-3.08c.06-.91.18-1.9.77-2.63.57-.7 1.48-1 2.33-1.18 1.44-.32 2.96-.4 4.28-1.1.45-.28.5-.93.26-1.37a6.35 6.35 0 0 0-3.19-3.28 2.46 2.46 0 0 0-1.03-.22Zm-1.13 15.05s0-.01 0 0z" style="opacity:.1;fill-rule:evenodd" transform="translate(-33.33 -33.33) scale(33.33333)"/></g><g style="display:inline"><path d="M21.42 13.62c-.62.02-1.25.49-1.28 1.13.03.38.39.6.69.77.33.17.64.41.85.72.22.17.47.31.6.57.39.65.28 1.48-.02 2.15a4.6 4.6 0 0 0-.44 1.9c-.02.64-.2 1.3-.63 1.8a4.5 4.5 0 0 1-2.54 1.24c-1.16.24-2.35.25-3.51.5-.23.06-.5.12-.62.35-.28.44-.18 1-.05 1.46a5.9 5.9 0 0 0 2.51 3.23 8.96 8.96 0 0 0 9.1.55 8.98 8.98 0 0 0 4.64-8.06 8.87 8.87 0 0 0-4.86-7.45c-1.12-.5-2.35-.64-3.54-.8-.3-.02-.6-.06-.9-.06z" style="display:inline;fill:url(#c)" transform="translate(-33.33 -33.33) scale(33.33333)"/><path d="M21.56 13.54c-.74.02-1.5.53-1.6 1.29.01.35.32.58.63.68.37.16.74.36.99.7.27.13.53.3.69.58.4.65.31 1.49-.01 2.15a6.49 6.49 0 0 0-.56 2.42c-.12.83-.65 1.6-1.42 1.94-1.14.6-2.45.7-3.7.86-.62.08-1.27.14-1.86.39-.4.3-.43.88-.31 1.33a5.85 5.85 0 0 0 2.56 3.53 6.8 6.8 0 0 0 4.08 1.33 5.22 5.22 0 0 0 2.4-.83c1.2-.7 2.3-1.52 3.33-2.45a13.17 13.17 0 0 0 3.64-5.58c.23-.8.13-1.67-.16-2.45a9.02 9.02 0 0 0-3.2-4.26 7.54 7.54 0 0 0-3.08-1.34c-.8-.17-1.6-.3-2.42-.3Z" style="display:inline;opacity:.05;fill-rule:evenodd" transform="translate(-33.33 -33.33) scale(33.33333)"/><path d="M21.43 13.55c-.65.05-1.3.53-1.4 1.2 0 .39.34.63.65.78.37.17.67.45.93.74.67.3.98 1.08.89 1.78-.13.87-.7 1.64-.7 2.54-.04.78-.18 1.62-.77 2.18a5.25 5.25 0 0 1-2.83 1.2c-1.14.2-2.31.22-3.43.54-.4.28-.44.83-.34 1.27a5.5 5.5 0 0 0 2.38 3.52 4.5 4.5 0 0 0 3.06.97c1.25-.18 2.35-.86 3.45-1.45a14.39 14.39 0 0 0 6.46-7.78c.27-.8.45-1.72.1-2.53a7.89 7.89 0 0 0-1.94-2.6 8.04 8.04 0 0 0-3.82-2.02 12.6 12.6 0 0 0-2.69-.34z" style="display:inline;opacity:.1;fill-rule:evenodd" transform="translate(-33.33 -33.33) scale(33.33333)"/><path d="M21.51 13.56c-.66 0-1.35.48-1.44 1.16-.02.38.3.64.6.8.34.19.67.44.92.75.32.16.61.4.74.73.31.68.14 1.48-.17 2.12a5.23 5.23 0 0 0-.4 1.95c-.08.79-.44 1.6-1.14 2.03-1 .69-2.22.86-3.4 1.02-.82.1-1.67.15-2.47.4-.43.32-.46.93-.3 1.4a5.36 5.36 0 0 0 3.8 4 4.7 4.7 0 0 0 2.72-.5 14.52 14.52 0 0 0 7.21-6.04 11.2 11.2 0 0 0 1.57-4.25 3.03 3.03 0 0 0-.79-2.14 9.77 9.77 0 0 0-2.88-2.4 11.64 11.64 0 0 0-4.16-1.01c-.14 0-.27-.03-.41-.02z" style="display:inline;opacity:.1;fill-rule:evenodd" transform="translate(-33.33 -33.33) scale(33.33333)"/></g></g><path d="M495.47 41.27a462.43 460.9 0 0 0-462.44 460.9 462.43 460.9 0 0 0 462.44 460.9 462.43 460.9 0 0 0 462.43-460.9 462.43 460.9 0 0 0-462.43-460.9Zm6.26 184.83a372.8 372.8 0 0 1 63.87 4.9 230.6 230.6 0 0 1 44.3 11.43 85.87 85.87 0 0 1 34.67 22.14 44.8 44.8 0 0 1 10.7 29.76A43.13 43.13 0 0 1 644 325.37a37.47 37.47 0 0 1-28.3 11.8 50.97 50.97 0 0 1-21.03-4.74 381.13 381.13 0 0 0-50.1-18.33 181.83 181.83 0 0 0-48.27-6 110.17 110.17 0 0 0-60.47 15.47 50.3 50.3 0 0 0-24.13 45.16 45.43 45.43 0 0 0 12.53 31.77A114.2 114.2 0 0 0 458 424.67c14.16 7.02 35.27 16.33 63.33 27.93a65.67 65.67 0 0 1 9.07 3.63 449.9 449.9 0 0 1 78.4 40.3 158.07 158.07 0 0 1 48.27 49.54 130.67 130.67 0 0 1 17.43 68.8 138.37 138.37 0 0 1-24.13 82.93 143.47 143.47 0 0 1-67.5 50.1 284.57 284.57 0 0 1-101.47 16.53 319.67 319.67 0 0 1-138.3-26.16 75.27 75.27 0 0 1-28.47-22.14 49.77 49.77 0 0 1-9.26-30.13 39.37 39.37 0 0 1 12.16-30.67 44.83 44.83 0 0 1 31.37-11.06 80.23 80.23 0 0 1 36.67 9.43c14.04 7.02 25.12 12.29 33.23 15.8a166.93 166.93 0 0 0 28.67 9.07 164 164 0 0 0 36.83 3.8 98.33 98.33 0 0 0 61.9-16.5 54.5 54.5 0 0 0 20.87-45.2 48 48 0 0 0-13.07-33 138.9 138.9 0 0 0-38.47-28c-16.95-8.94-40.8-19.83-71.53-32.67a443.03 443.03 0 0 1-78.57-40.83 145.27 145.27 0 0 1-45.56-48.07 132.87 132.87 0 0 1-15.6-66.43 119.4 119.4 0 0 1 28.13-80.4 169.33 169.33 0 0 1 73.33-49 283.17 283.17 0 0 1 96-16.17z" style="display:inline;fill:url(#d);stroke-width:33.33333206"/></g></svg>