<?xml version="1.0" encoding="UTF-8" standalone="no"?>
<svg xmlns:dc="http://purl.org/dc/elements/1.1/" xmlns:cc="http://creativecommons.org/ns#" xmlns:rdf="http://www.w3.org/1999/02/22-rdf-syntax-ns#" xmlns:svg="http://www.w3.org/2000/svg" xmlns="http://www.w3.org/2000/svg" xmlns:sodipodi="http://sodipodi.sourceforge.net/DTD/sodipodi-0.dtd" xmlns:inkscape="http://www.inkscape.org/namespaces/inkscape" id="svg8" xml:space="preserve" style="enable-background:new 0 0 69.2 69.2;" viewBox="0 0 69.2 69.2" y="0px" x="0px" version="1.1" class="sign-logo" sodipodi:docname="telegram_a.svg" inkscape:version="0.92.5 (2060ec1f9f, 2020-04-08)"><sodipodi:namedview pagecolor="#ffffff" bordercolor="#666666" borderopacity="1" objecttolerance="10" gridtolerance="10" guidetolerance="10" inkscape:pageopacity="0" inkscape:pageshadow="2" inkscape:window-width="1861" inkscape:window-height="1056" id="namedview9" showgrid="false" inkscape:zoom="11.203713" inkscape:cx="36.389163" inkscape:cy="32.547108" inkscape:window-x="59" inkscape:window-y="273" inkscape:window-maximized="1" inkscape:current-layer="Layer_3" /><metadata id="metadata14"><rdf:RDF><cc:Work rdf:about=""><dc:format>image/svg+xml</dc:format><dc:type rdf:resource="http://purl.org/dc/dcmitype/StillImage" /><dc:title /></cc:Work></rdf:RDF></metadata><defs id="defs12" /><g id="Layer_3"><path inkscape:connector-curvature="0" id="circle2" d="M 34.599609,0 A 34.599998,34.599998 0 0 0 0,34.599609 a 34.599998,34.599998 0 0 0 34.599609,34.59961 a 34.599998,34.599998 0 0 0 34.59961,-34.59961 A 34.599998,34.599998 0 0 0 34.599609,0 Z M 49.5625,20.224609 C 50.425,20.299609 51.249609,20.8 51.099609,22.5 c -0.1,1.4 -0.899218,6.299609 -1.699218,11.599609 c -1.2,7.5 -2.5,15.701172 -2.5,15.701172 C 46.900391,49.800781 46.7,52.1 45,52.5 c -1.7,0.4 -4.5,-1.400781 -5,-1.800781 c -0.4,-0.3 -7.499609,-4.8 -10.099609,-7 C 29.200391,43.099219 28.4,41.9 30,40.5 c 3.6,-3.3 7.9,-7.4 10.5,-10 c 1.2,-1.2 2.400391,-3.999609 -2.599609,-0.599609 c -7.1,4.9 -14.09961,9.5 -14.09961,9.5 c 0,0 -1.601562,0.999609 -4.601562,0.09961 c -3,-0.9 -6.5,-2.099609 -6.5,-2.099609 c 0,0 -2.398828,-1.49961 1.701172,-3.09961 c 0,0 17.298828,-7.101562 23.298828,-9.601562 c 2.3,-1 10.101562,-4.199219 10.101562,-4.199219 c 0,0 0.899219,-0.350391 1.761719,-0.275392 z" style="opacity:1;fill:#ffffff" /></g></svg>