<svg xmlns="http://www.w3.org/2000/svg" width="300" height="244.187" viewBox="0 0 300.00006 244.18703"><g fill="#fff"><path d="M94.72 243.2c112.46 0 173.96-93.18 173.96-173.97 0-2.65-.06-5.28-.18-7.9 11.94-8.63 22.32-19.4 30.5-31.66-10.95 4.87-22.74 8.15-35.1 9.62 12.6-7.58 22.3-19.55 26.88-33.82-11.82 7-24.9 12.1-38.83 14.84C240.8 8.42 224.9 1 207.32 1c-33.76 0-61.14 27.38-61.14 61.13 0 4.8.53 9.47 1.58 13.94C96.96 73.52 51.9 49.2 21.74 12.2c-5.25 9.03-8.28 19.52-8.28 30.72 0 21.2 10.8 39.94 27.2 50.9-10.02-.3-19.45-3.07-27.68-7.65 0 .26 0 .5 0 .78 0 29.6 21.06 54.33 49.04 59.93-5.14 1.4-10.54 2.16-16.12 2.16-3.94 0-7.77-.4-11.5-1.1 7.8 24.3 30.36 41.96 57.12 42.46-20.92 16.4-47.3 26.17-75.94 26.17-4.92 0-9.8-.28-14.58-.85 27.06 17.35 59.2 27.47 93.72 27.47"/></g></svg>